<svg height="512" viewBox="0 0 60 60" width="512" xmlns="http://www.w3.org/2000/svg"><g id="Page-1" fill="none" fill-rule="evenodd"><g id="020---Pop-Up-Window"><path id="Path" d="m55 6v7h-54v-7c0-2.76142375 2.23857625-5 5-5h44c1.3260824 0 2.597852.5267842 3.5355339 1.46446609.9376819.9376819 1.4644661 2.20945146 1.4644661 3.53553391z" fill="#a3c1f6"/><path id="Path" d="m50 1h-3c1.3260824 0 2.597852.5267842 3.5355339 1.46446609.9376819.9376819 1.4644661 2.20945146 1.4644661 3.53553391v7h3v-7c0-1.32608245-.5267842-2.59785201-1.4644661-3.53553391-.9376819-.93768189-2.2094515-1.46446609-3.5355339-1.46446609z" fill="#7fabf9"/><path id="Path" d="m55 13v11h-41c-1.6568542 0-3 1.3431458-3 3v28h-5c-1.32608245 0-2.59785201-.5267842-3.53553391-1.4644661-.93768189-.9376819-1.46446609-2.2094515-1.46446609-3.5355339v-37z" fill="#e7ecfb"/><path id="Path" d="m8 27v28h3v-28c0-1.6568542 1.3431458-3 3-3h-3c-1.65685425 0-3 1.3431458-3 3z" fill="#c9d8fb"/><path id="Rectangle" d="m52 13h3v11h-3z" fill="#c9d8fb"/><circle id="Oval" cx="7" cy="7" fill="#e7ecfb" r="2"/><circle id="Oval" cx="15" cy="7" fill="#e7ecfb" r="2"/><circle id="Oval" cx="23" cy="7" fill="#e7ecfb" r="2"/><path id="Path" d="m49 9c1.1045695 0 2-.8954305 2-2s-.8954305-2-2-2h-10c-1.1045695 0-2 .8954305-2 2s.8954305 2 2 2z" fill="#c9d8fb"/><path id="Path" d="m59 27v7h-48v-7c0-1.6568542 1.3431458-3 3-3h42c1.6568542 0 3 1.3431458 3 3z" fill="#a3c1f6"/><path id="Path" d="m56 24h-3c1.6568542 0 3 1.3431458 3 3v7h3v-7c0-1.6568542-1.3431458-3-3-3z" fill="#7fabf9"/><path id="Path" d="m59 34v22c0 1.6568542-1.3431458 3-3 3h-42c-1.6568542 0-3-1.3431458-3-3v-22z" fill="#e7ecfb"/><path id="Path" d="m56 34v22c0 1.6568542-1.3431458 3-3 3h3c1.6568542 0 3-1.3431458 3-3v-22z" fill="#c9d8fb"/><rect id="Rectangle" fill="#a3c1f6" height="6" rx="3" width="16" x="27" y="48"/><path id="Path" d="m6 55h3c-2.76142375 0-5-2.2385763-5-5v-44c0-2.76142375 2.23857625-5 5-5h-3c-2.76142375 0-5 2.23857625-5 5v44c0 1.3260824.5267842 2.597852 1.46446609 3.5355339.9376819.9376819 2.20945146 1.4644661 3.53553391 1.4644661z" fill="#fff"/><path id="Rectangle" d="m0 42h2v8h-2z" fill="#fff"/><g fill="#428dff"><circle id="Oval" cx="1" cy="46" r="1"/><path id="Shape" d="m7 4c-1.65685425 0-3 1.34314575-3 3s1.34314575 3 3 3 3-1.34314575 3-3-1.34314575-3-3-3zm0 4c-.55228475 0-1-.44771525-1-1s.44771525-1 1-1 1 .44771525 1 1-.44771525 1-1 1z" fill-rule="nonzero"/><path id="Shape" d="m15 4c-1.6568542 0-3 1.34314575-3 3s1.3431458 3 3 3 3-1.34314575 3-3-1.3431458-3-3-3zm0 4c-.5522847 0-1-.44771525-1-1s.4477153-1 1-1 1 .44771525 1 1-.4477153 1-1 1z" fill-rule="nonzero"/><path id="Shape" d="m23 4c-1.6568542 0-3 1.34314575-3 3s1.3431458 3 3 3 3-1.34314575 3-3-1.3431458-3-3-3zm0 4c-.5522847 0-1-.44771525-1-1s.4477153-1 1-1 1 .44771525 1 1-.4477153 1-1 1z" fill-rule="nonzero"/><path id="Shape" d="m49 4h-10c-1.6568542.00000002-3 1.34314577-3 3s1.3431458 2.99999998 3 3h10c1.6568542-.00000002 3-1.34314577 3-3s-1.3431458-2.99999998-3-3zm0 4h-10c-.5522847 0-1-.44771525-1-1s.4477153-1 1-1h10c.5522847 0 1 .44771525 1 1s-.4477153 1-1 1z" fill-rule="nonzero"/><path id="Shape" d="m56 23v-17c-.0033074-3.31233757-2.6876624-5.99669262-6-6h-44c-3.31233757.00330738-5.99669262 2.68766243-6 6v36c0 .5522847.44771525 1 1 1s1-.4477153 1-1v-28h52v9h-40c-2.209139 0-4 1.790861-4 4v27h-4c-2.209139 0-4-1.790861-4-4 0-.5522847-.44771525-1-1-1s-1 .4477153-1 1c.00330738 3.3123376 2.68766243 5.9966926 6 6h4c0 2.209139 1.790861 4 4 4h42c2.209139 0 4-1.790861 4-4v-29c0-2.209139-1.790861-4-4-4zm-54-11v-6c0-2.209139 1.790861-4 4-4h44c2.209139 0 4 1.790861 4 4v6zm12 13h42c1.1045695 0 2 .8954305 2 2v6h-46v-6c0-1.1045695.8954305-2 2-2zm42 33h-42c-1.1045695 0-2-.8954305-2-2v-21h46v21c0 1.1045695-.8954305 2-2 2z" fill-rule="nonzero"/><path id="Path" d="m52.293 30.707c.3904999.3903819 1.0235001.3903819 1.414 0l.293-.293.293.293c.3923789.3789722 1.0160848.3735524 1.4018186-.0121814s.3911536-1.0094397.0121814-1.4018186l-.293-.293.293-.293c.3789722-.3923789.3735524-1.0160848-.0121814-1.4018186s-1.0094397-.3911536-1.4018186-.0121814l-.293.293-.293-.293c-.3923789-.3789722-1.0160848-.3735524-1.4018186.0121814s-.3911536 1.0094397-.0121814 1.4018186l.293.293-.293.293c-.3903819.3904999-.3903819 1.0235001 0 1.414z"/><path id="Shape" d="m40 47h-10c-2.209139 0-4 1.790861-4 4s1.790861 4 4 4h10c2.209139 0 4-1.790861 4-4s-1.790861-4-4-4zm0 6h-10c-1.1045695 0-2-.8954305-2-2s.8954305-2 2-2h10c1.1045695 0 2 .8954305 2 2s-.8954305 2-2 2z" fill-rule="nonzero"/><path id="Path" d="m33 40h4c.5522847 0 1-.4477153 1-1s-.4477153-1-1-1h-4c-.5522847 0-1 .4477153-1 1s.4477153 1 1 1z"/><path id="Path" d="m29 44h12c.5522847 0 1-.4477153 1-1s-.4477153-1-1-1h-12c-.5522847 0-1 .4477153-1 1s.4477153 1 1 1z"/></g></g></g></svg>